<?xml version="1.0" encoding="utf-8"?><svg viewBox="0 0 32 32" xmlns="http://www.w3.org/2000/svg" xmlns:xlink="http://www.w3.org/1999/xlink"><style>:root>svg{display:none}:root>svg:target{display:block}</style><svg viewBox="0 0 32 32" id="airnb" xmlns="http://www.w3.org/2000/svg"><path d="M16.04 24.36c-1.778-2.27-2.793-4.231-3.149-5.986-1.574-6.348 7.922-6.348 6.348 0-.406 1.755-1.473 3.82-3.2 5.987zm9.648 5.214c-2.945 1.29-5.89-.775-8.379-3.562 7.313-9.29 3.301-14.348-1.27-14.348-3.859 0-5.991 3.252-5.128 7.174.508 2.116 1.777 4.439 3.86 7.123-2.286 2.529-4.216 3.768-5.993 3.922-3.504.568-6.246-2.89-4.926-6.451 1.067-2.787 7.871-16.516 8.176-17.239 1.066-2.167 1.777-4.077 4.164-4.077 2.285 0 3.098 1.806 4.215 4.284 2.59 5.006 6.297 12.645 8.074 17.032.762 2.322-.203 5.058-2.793 6.142zm3.352-9.703C19.95.31 19.442 0 16.04 0c-3.2 0-4.57 2.27-5.942 5.161C2.583 20.387 1.923 22.451 1.77 22.71.044 27.664 3.7 32 8.067 32c1.524 0 4.316-.412 7.922-4.438C20.153 32.155 23.149 32 23.911 32c4.418 0 8.074-4.387 6.297-9.29.05-.31-1.168-2.787-1.168-2.838z"/></svg><svg viewBox="0 0 32 32" id="facebook" xmlns="http://www.w3.org/2000/svg"><path d="M18.129 32h-3.935c-1.009 0-1.816-.855-1.816-1.912V18.113H9.149c-1.009 0-1.816-.855-1.816-1.912V12.73c0-1.057.807-1.912 1.816-1.912h3.128v-3.17c0-4.579 2.724-7.648 6.76-7.648h3.026c1.01 0 1.816.855 1.816 1.912v4.075c0 1.057-.807 1.912-1.816 1.912h-2.168v2.868h2.875c.605.05 1.11.302 1.462.705.354.453.505 1.056.404 1.61l-.605 3.421c-.101.906-.858 1.56-1.816 1.56h-2.32v12.025c0 1.006-.808 1.912-1.766 1.912zm-4.894-15.648c.505 0 .908.403.908.906v12.83c0 .1.05.151.05.151h3.936s.05-.05.05-.15V17.156c0-.503.404-.905.908-.905h3.178s.05 0 .05-.05v-.051l.606-3.371c0-.1 0-.151-.05-.201 0 0-.051-.05-.101-.05h-3.733a.903.903 0 01-.908-.906V8.05c0-.905.15-1.912 1.866-1.912h2.068s.05-.05.05-.15V1.961c0-.1-.05-.15-.05-.15h-2.976c-3.027 0-4.994 2.314-4.994 5.886v4.076a.903.903 0 01-.908.905H9.149s-.05.05-.05.151v3.472c0 .1.05.15.05.15l4.086-.1z"/></svg><svg viewBox="0 0 32 32" id="instagram" xmlns="http://www.w3.org/2000/svg"><path d="M24.038 0C28.422 0 32 3.533 32 7.924v16.101C32 28.416 28.472 32 24.088 32H7.962C3.578 32 0 28.467 0 24.076V7.924A7.9 7.9 0 017.912 0h16.126zm0 1.767H7.912c-3.377 0-6.148 2.776-6.148 6.157v16.152c0 3.432 2.771 6.208 6.148 6.208h16.176c3.377 0 6.148-2.776 6.148-6.208V7.975a6.199 6.199 0 00-6.198-6.208zM15.975 8.58c4.082 0 7.408 3.332 7.408 7.42s-3.326 7.42-7.408 7.42c-4.082 0-7.408-3.332-7.408-7.42s3.326-7.42 7.408-7.42zm0 1.767A5.64 5.64 0 0010.33 16a5.64 5.64 0 005.644 5.653A5.64 5.64 0 0021.619 16a5.64 5.64 0 00-5.644-5.653zm8.113-5.4c1.058 0 1.915.857 1.915 1.917a1.916 1.916 0 11-3.83 0c0-1.06.857-1.918 1.915-1.918z"/></svg><svg viewBox="0 0 18 18" id="star" xmlns="http://www.w3.org/2000/svg"><g clip-path="url(#da)"><path d="M17.593 6.49l-5.62-.87L9.427.28a.478.478 0 00-.87 0L6.011 5.65l-5.589.84c-.404.063-.559.59-.248.87l4.066 4.19-.96 5.87c-.062.404.341.745.714.497l5.061-2.764 5.03 2.764c.342.186.776-.124.683-.497l-.962-5.869 4.067-4.191c.248-.28.124-.807-.28-.87z"/></g><defs><clipPath id="da"><path d="M0 0h18v18H0z"/></clipPath></defs></svg></svg>